<svg width="48" height="37" viewBox="0 0 48 37" fill="none" xmlns="http://www.w3.org/2000/svg">
<path fill-rule="evenodd" clip-rule="evenodd" d="M24.002 0C26.677 0 29.246 0.462 31.639 1.3C31.665 1.307 31.691 1.315 31.716 1.326C40.703 4.513 47.16 13.093 47.16 23.158V36.565L0.844971 36.56V23.158C0.844971 17.795 2.68297 12.855 5.75497 8.925C5.79197 8.845 5.84697 8.777 5.91497 8.723C7.79197 6.375 10.115 4.398 12.757 2.924C12.805 2.884 12.859 2.854 12.919 2.831C14.859 1.768 16.97 0.977 19.197 0.505C19.23 0.495 19.263 0.486 19.296 0.482C20.816 0.167 22.389 0 24.002 0ZM46.008 25.73L42.711 31.008V35.414H46.008V25.73ZM37.368 24.298H31.666V28.976H35.392C35.71 28.976 35.968 29.234 35.968 29.551C35.968 29.869 35.71 30.127 35.392 30.127H31.666V34.804H37.474C37.792 34.804 38.05 35.062 38.05 35.38L38.046 35.413H41.56V31.008L37.368 24.298ZM19.102 1.708C17.193 2.144 15.378 2.826 13.692 3.723V15.727C13.692 16.045 13.435 16.303 13.117 16.303C12.799 16.303 12.542 16.045 12.542 15.727V4.379C10.366 5.711 8.44197 7.413 6.84997 9.392V17.932H13.117C13.435 17.932 13.693 18.188 13.693 18.507C13.693 18.825 13.435 19.082 13.117 19.082H6.27397C5.95697 19.082 5.69897 18.825 5.69897 18.507V10.956C3.80497 13.788 2.55297 17.082 2.14497 20.629C2.15897 20.653 2.17497 20.676 2.18497 20.703L6.65597 31.39L11.128 20.703C11.251 20.409 11.589 20.272 11.882 20.393C12.175 20.517 12.313 20.853 12.19 21.147L7.18797 33.105C7.09797 33.319 6.88797 33.458 6.65597 33.458C6.42397 33.458 6.21597 33.318 6.12597 33.105L1.99597 23.233V35.408L8.25497 35.41C8.26197 35.379 8.26897 35.348 8.28197 35.318L9.84697 31.578V31.576L13.479 22.897C13.569 22.683 13.778 22.544 14.009 22.544C14.242 22.544 14.452 22.684 14.541 22.897L19.737 35.317C19.75 35.349 19.759 35.379 19.766 35.411H30.518L30.515 35.381V23.721C30.515 23.404 30.772 23.146 31.09 23.146H37.694C37.72 23.147 37.746 23.151 37.771 23.154L37.808 23.159C37.831 23.164 37.854 23.173 37.876 23.18L37.915 23.193L37.975 23.226L38.011 23.246C38.028 23.258 38.044 23.272 38.059 23.286C38.072 23.297 38.086 23.307 38.098 23.319L38.129 23.357C38.143 23.374 38.158 23.391 38.169 23.409C38.171 23.412 38.174 23.414 38.175 23.417L42.135 29.756L46.008 23.556V23.157C46.008 20.725 45.606 18.387 44.874 16.197H42.644V17.802H44.057C44.322 17.802 44.537 18.016 44.537 18.282C44.537 18.546 44.322 18.762 44.057 18.762H42.644V20.367H44.974C45.238 20.367 45.454 20.581 45.454 20.847C45.454 21.111 45.238 21.326 44.974 21.326H42.164C41.9 21.326 41.684 21.111 41.684 20.846V15.717C41.684 15.452 41.9 15.237 42.164 15.237H44.528C43.734 13.187 42.642 11.285 41.303 9.583H39.14V11.188H40.553C40.818 11.188 41.033 11.403 41.033 11.668C41.033 11.932 40.818 12.148 40.553 12.148H39.14V14.232C39.14 14.497 38.925 14.712 38.66 14.712C38.395 14.712 38.18 14.497 38.18 14.232V9.103C38.18 8.838 38.395 8.623 38.66 8.623H40.505C38.14 5.941 35.135 3.837 31.73 2.556L26.257 11.317V16.442C26.257 16.76 25.999 17.018 25.681 17.018C25.363 17.018 25.105 16.76 25.105 16.442V11.317L19.102 1.708ZM17.259 32.376H10.76L9.49097 35.41H18.527L17.257 32.376H17.259ZM20.929 20.823C21.246 20.823 21.504 21.081 21.504 21.399V32.619H26.734C27.051 32.619 27.309 32.878 27.309 33.195C27.309 33.513 27.051 33.771 26.733 33.771H20.93C20.611 33.771 20.354 33.513 20.354 33.195V21.399C20.354 21.081 20.61 20.823 20.929 20.823ZM23.831 20.65C24.149 20.65 24.406 20.908 24.406 21.226V30.134H28.873C29.191 30.134 29.449 30.392 29.449 30.709C29.449 31.027 29.191 31.285 28.873 31.285H23.831C23.513 31.285 23.255 31.027 23.255 30.709V21.226C23.255 20.908 23.513 20.65 23.831 20.65ZM14.01 24.611L11.243 31.225H16.777L14.01 24.611ZM40.162 15.456C40.427 15.456 40.642 15.671 40.642 15.936V20.629C40.642 20.894 40.427 21.109 40.162 21.109C39.897 21.109 39.682 20.894 39.682 20.629V18.763H37.148V20.63C37.148 20.895 36.934 21.11 36.669 21.11C36.404 21.11 36.189 20.895 36.189 20.63V15.937C36.189 15.672 36.404 15.457 36.669 15.457C36.934 15.457 37.149 15.672 37.149 15.937V17.804H39.682V15.937C39.682 15.672 39.897 15.457 40.162 15.457V15.456ZM35.026 15.494C35.291 15.494 35.506 15.709 35.506 15.974C35.506 16.239 35.291 16.454 35.026 16.454H33.415V20.591C33.415 20.856 33.2 21.071 32.935 21.071C32.67 21.071 32.455 20.856 32.455 20.591V16.454H30.844C30.579 16.454 30.364 16.239 30.364 15.974C30.364 15.709 30.579 15.494 30.844 15.494H35.026ZM16.677 4.838C16.996 4.838 17.253 5.095 17.253 5.414V17.931H23.143C23.46 17.931 23.718 18.188 23.718 18.507C23.718 18.825 23.46 19.082 23.142 19.082H16.677C16.359 19.082 16.102 18.825 16.102 18.507V5.413C16.102 5.094 16.359 4.838 16.677 4.838ZM34.375 8.624C36.054 8.624 37.419 9.99 37.419 11.668C37.419 13.348 36.054 14.713 34.375 14.713C32.696 14.713 31.331 13.347 31.331 11.668C31.331 9.99 32.696 8.624 34.375 8.624ZM34.375 9.584C33.225 9.584 32.29 10.519 32.29 11.668C32.29 12.818 33.226 13.753 34.375 13.753C35.525 13.753 36.46 12.818 36.46 11.668C36.46 10.519 35.524 9.584 34.375 9.584ZM24.002 1.152C22.743 1.152 21.511 1.264 20.309 1.468L25.681 10.066L30.615 2.169C28.526 1.509 26.305 1.152 24.002 1.152Z" fill="#BE5728"/>
</svg>
